<svg width="6" height="6" viewBox="0 0 6 6" fill="none" xmlns="http://www.w3.org/2000/svg">
<path d="M5.4 0C5.73137 0 6.00311 0.26929 5.97003 0.599006C5.91158 1.18145 5.76811 1.7533 5.54328 2.2961C5.24175 3.02405 4.79979 3.68549 4.24264 4.24264C3.68549 4.79979 3.02405 5.24175 2.2961 5.54328C1.7533 5.76811 1.18145 5.91158 0.599004 5.97003C0.269289 6.00311 -9.53674e-07 5.73137 -9.53674e-07 5.4C-9.53674e-07 5.06863 0.269657 4.80386 0.598443 4.76255C1.02316 4.70918 1.43974 4.59912 1.83688 4.43462C2.41924 4.1934 2.94839 3.83983 3.39411 3.39411C3.83983 2.94839 4.1934 2.41924 4.43462 1.83688C4.59912 1.43974 4.70918 1.02316 4.76255 0.598444C4.80386 0.269658 5.06863 0 5.4 0Z" fill="white"/>
</svg>
